<mxfile host="app.diagrams.net" modified="2024-02-27T01:04:21.736Z" agent="Mozilla/5.0 (Windows NT 10.0; Win64; x64) AppleWebKit/537.36 (KHTML, like Gecko) Chrome/121.0.0.0 Safari/537.36" etag="ofYACzbZrCJx2S2-YxLB" version="23.1.7" type="google">
  <diagram name="Página-1" id="sbt2kvun6e-V8ustTMry">
    <mxGraphModel grid="1" page="1" gridSize="10" guides="1" tooltips="1" connect="1" arrows="1" fold="1" pageScale="1" pageWidth="827" pageHeight="1169" math="0" shadow="0">
      <root>
        <mxCell id="0" />
        <mxCell id="1" parent="0" />
        <mxCell id="-NXmrj87Xi26HZ0yywFv-4" value="" style="edgeStyle=orthogonalEdgeStyle;rounded=0;orthogonalLoop=1;jettySize=auto;html=1;" edge="1" parent="1" source="-NXmrj87Xi26HZ0yywFv-1" target="-NXmrj87Xi26HZ0yywFv-3">
          <mxGeometry relative="1" as="geometry" />
        </mxCell>
        <mxCell id="-NXmrj87Xi26HZ0yywFv-1" value="Estatística" style="rounded=1;whiteSpace=wrap;html=1;" vertex="1" parent="1">
          <mxGeometry x="770" width="120" height="60" as="geometry" />
        </mxCell>
        <mxCell id="-NXmrj87Xi26HZ0yywFv-2" value="Registrar em Papel, Planilhas, Sofwares..." style="shape=note;whiteSpace=wrap;html=1;backgroundOutline=1;darkOpacity=0.05;fillColor=#fff2cc;strokeColor=#d6b656;sketch=1;curveFitting=1;jiggle=2;shadow=0;size=34;" vertex="1" parent="1">
          <mxGeometry x="1150" y="170" width="80" height="100" as="geometry" />
        </mxCell>
        <mxCell id="-NXmrj87Xi26HZ0yywFv-7" value="" style="edgeStyle=orthogonalEdgeStyle;rounded=0;orthogonalLoop=1;jettySize=auto;html=1;" edge="1" parent="1" source="-NXmrj87Xi26HZ0yywFv-3" target="-NXmrj87Xi26HZ0yywFv-6">
          <mxGeometry relative="1" as="geometry" />
        </mxCell>
        <mxCell id="-NXmrj87Xi26HZ0yywFv-3" value="Ferramenta para analisar Dados" style="rounded=1;whiteSpace=wrap;html=1;" vertex="1" parent="1">
          <mxGeometry x="770" y="90" width="120" height="60" as="geometry" />
        </mxCell>
        <mxCell id="-NXmrj87Xi26HZ0yywFv-10" value="" style="edgeStyle=orthogonalEdgeStyle;rounded=0;orthogonalLoop=1;jettySize=auto;html=1;" edge="1" parent="1" source="-NXmrj87Xi26HZ0yywFv-6" target="-NXmrj87Xi26HZ0yywFv-9">
          <mxGeometry relative="1" as="geometry" />
        </mxCell>
        <mxCell id="-NXmrj87Xi26HZ0yywFv-14" value="" style="edgeStyle=orthogonalEdgeStyle;rounded=0;orthogonalLoop=1;jettySize=auto;html=1;" edge="1" parent="1" source="-NXmrj87Xi26HZ0yywFv-6" target="-NXmrj87Xi26HZ0yywFv-12">
          <mxGeometry relative="1" as="geometry" />
        </mxCell>
        <mxCell id="-NXmrj87Xi26HZ0yywFv-17" value="" style="edgeStyle=orthogonalEdgeStyle;rounded=0;orthogonalLoop=1;jettySize=auto;html=1;" edge="1" parent="1" source="-NXmrj87Xi26HZ0yywFv-6" target="-NXmrj87Xi26HZ0yywFv-16">
          <mxGeometry relative="1" as="geometry" />
        </mxCell>
        <mxCell id="-NXmrj87Xi26HZ0yywFv-58" style="edgeStyle=orthogonalEdgeStyle;rounded=0;orthogonalLoop=1;jettySize=auto;html=1;exitX=0.75;exitY=1;exitDx=0;exitDy=0;entryX=0.5;entryY=0;entryDx=0;entryDy=0;" edge="1" parent="1" source="-NXmrj87Xi26HZ0yywFv-6" target="-NXmrj87Xi26HZ0yywFv-39">
          <mxGeometry relative="1" as="geometry" />
        </mxCell>
        <mxCell id="-NXmrj87Xi26HZ0yywFv-6" value="DADOS" style="rounded=1;whiteSpace=wrap;html=1;" vertex="1" parent="1">
          <mxGeometry x="770" y="190" width="120" height="60" as="geometry" />
        </mxCell>
        <mxCell id="-NXmrj87Xi26HZ0yywFv-11" value="" style="edgeStyle=orthogonalEdgeStyle;rounded=0;orthogonalLoop=1;jettySize=auto;html=1;" edge="1" parent="1" source="-NXmrj87Xi26HZ0yywFv-9" target="-NXmrj87Xi26HZ0yywFv-2">
          <mxGeometry relative="1" as="geometry" />
        </mxCell>
        <mxCell id="-NXmrj87Xi26HZ0yywFv-9" value="Tudo que podemos registrar" style="rounded=1;whiteSpace=wrap;html=1;" vertex="1" parent="1">
          <mxGeometry x="930" y="190" width="120" height="60" as="geometry" />
        </mxCell>
        <mxCell id="-NXmrj87Xi26HZ0yywFv-33" value="" style="edgeStyle=orthogonalEdgeStyle;rounded=0;orthogonalLoop=1;jettySize=auto;html=1;exitX=0;exitY=0.5;exitDx=0;exitDy=0;" edge="1" parent="1" source="-NXmrj87Xi26HZ0yywFv-12" target="-NXmrj87Xi26HZ0yywFv-32">
          <mxGeometry relative="1" as="geometry" />
        </mxCell>
        <mxCell id="-NXmrj87Xi26HZ0yywFv-38" value="" style="edgeStyle=orthogonalEdgeStyle;rounded=0;orthogonalLoop=1;jettySize=auto;html=1;" edge="1" parent="1" source="-NXmrj87Xi26HZ0yywFv-12" target="-NXmrj87Xi26HZ0yywFv-35">
          <mxGeometry relative="1" as="geometry" />
        </mxCell>
        <mxCell id="-NXmrj87Xi26HZ0yywFv-12" value="Análise de Dados" style="rounded=1;whiteSpace=wrap;html=1;" vertex="1" parent="1">
          <mxGeometry x="770" y="330" width="120" height="60" as="geometry" />
        </mxCell>
        <mxCell id="-NXmrj87Xi26HZ0yywFv-20" style="edgeStyle=orthogonalEdgeStyle;rounded=0;orthogonalLoop=1;jettySize=auto;html=1;exitX=0.75;exitY=1;exitDx=0;exitDy=0;entryX=0.5;entryY=0;entryDx=0;entryDy=0;" edge="1" parent="1" source="-NXmrj87Xi26HZ0yywFv-16" target="-NXmrj87Xi26HZ0yywFv-19">
          <mxGeometry relative="1" as="geometry" />
        </mxCell>
        <mxCell id="-NXmrj87Xi26HZ0yywFv-21" style="edgeStyle=orthogonalEdgeStyle;rounded=0;orthogonalLoop=1;jettySize=auto;html=1;exitX=0.25;exitY=1;exitDx=0;exitDy=0;entryX=0.5;entryY=0;entryDx=0;entryDy=0;" edge="1" parent="1" source="-NXmrj87Xi26HZ0yywFv-16" target="-NXmrj87Xi26HZ0yywFv-18">
          <mxGeometry relative="1" as="geometry" />
        </mxCell>
        <mxCell id="-NXmrj87Xi26HZ0yywFv-16" value="São Variáveis" style="rounded=1;whiteSpace=wrap;html=1;" vertex="1" parent="1">
          <mxGeometry x="450" y="190" width="120" height="60" as="geometry" />
        </mxCell>
        <mxCell id="-NXmrj87Xi26HZ0yywFv-36" value="" style="edgeStyle=orthogonalEdgeStyle;rounded=0;orthogonalLoop=1;jettySize=auto;html=1;" edge="1" parent="1" source="-NXmrj87Xi26HZ0yywFv-18" target="-NXmrj87Xi26HZ0yywFv-31">
          <mxGeometry relative="1" as="geometry" />
        </mxCell>
        <mxCell id="-NXmrj87Xi26HZ0yywFv-18" value="Qualitativas (String)&lt;br&gt;Limitada a pequena operações, como validações" style="rounded=1;whiteSpace=wrap;html=1;" vertex="1" parent="1">
          <mxGeometry x="330" y="290" width="120" height="60" as="geometry" />
        </mxCell>
        <mxCell id="-NXmrj87Xi26HZ0yywFv-37" value="" style="edgeStyle=orthogonalEdgeStyle;rounded=0;orthogonalLoop=1;jettySize=auto;html=1;" edge="1" parent="1" source="-NXmrj87Xi26HZ0yywFv-19" target="-NXmrj87Xi26HZ0yywFv-31">
          <mxGeometry relative="1" as="geometry" />
        </mxCell>
        <mxCell id="-NXmrj87Xi26HZ0yywFv-19" value="Quantitativas (Number)&lt;br&gt;Para cálculos estatísticos" style="rounded=1;whiteSpace=wrap;html=1;" vertex="1" parent="1">
          <mxGeometry x="570" y="290" width="120" height="60" as="geometry" />
        </mxCell>
        <mxCell id="-NXmrj87Xi26HZ0yywFv-31" value="&lt;ul&gt;&lt;li&gt;Nº de alunos -&amp;gt; quanti&lt;/li&gt;&lt;li&gt;Qtd de salas -&amp;gt; quanti&lt;/li&gt;&lt;li&gt;Valor monetário -&amp;gt; quanti&lt;/li&gt;&lt;li&gt;Despesas -&amp;gt; quali&lt;/li&gt;&lt;li&gt;Cargos -&amp;gt; quali&lt;/li&gt;&lt;li&gt;Dados Pessoais -&amp;gt; quali&lt;/li&gt;&lt;li&gt;Horas trabalhadas -&amp;gt; quanti&lt;/li&gt;&lt;li&gt;Temperatura -&amp;gt; quanti&lt;/li&gt;&lt;li&gt;Datas -&amp;gt; quali&lt;/li&gt;&lt;li&gt;Qualidade do solo -&amp;gt; quali&lt;/li&gt;&lt;/ul&gt;" style="text;strokeColor=#82b366;fillColor=#d5e8d4;html=1;whiteSpace=wrap;verticalAlign=middle;overflow=hidden;" vertex="1" parent="1">
          <mxGeometry x="377" y="400" width="266" height="180" as="geometry" />
        </mxCell>
        <mxCell id="-NXmrj87Xi26HZ0yywFv-32" value="Quando analisados geram informações, e auxiliam nas tomadas de decisões" style="shape=note;whiteSpace=wrap;html=1;backgroundOutline=1;darkOpacity=0.05;fillColor=#fff2cc;strokeColor=#d6b656;sketch=1;curveFitting=1;jiggle=2;shadow=0;size=34;" vertex="1" parent="1">
          <mxGeometry x="650" y="400" width="160" height="100" as="geometry" />
        </mxCell>
        <mxCell id="-NXmrj87Xi26HZ0yywFv-35" value="ANÁLISE DE DADOS" style="rounded=1;whiteSpace=wrap;html=1;" vertex="1" parent="1">
          <mxGeometry x="765" y="690" width="130" height="80" as="geometry" />
        </mxCell>
        <mxCell id="-NXmrj87Xi26HZ0yywFv-51" style="edgeStyle=orthogonalEdgeStyle;rounded=0;orthogonalLoop=1;jettySize=auto;html=1;exitX=0.25;exitY=1;exitDx=0;exitDy=0;entryX=0.5;entryY=0;entryDx=0;entryDy=0;" edge="1" parent="1" source="-NXmrj87Xi26HZ0yywFv-39" target="-NXmrj87Xi26HZ0yywFv-42">
          <mxGeometry relative="1" as="geometry" />
        </mxCell>
        <mxCell id="-NXmrj87Xi26HZ0yywFv-52" style="edgeStyle=orthogonalEdgeStyle;rounded=0;orthogonalLoop=1;jettySize=auto;html=1;exitX=0.75;exitY=1;exitDx=0;exitDy=0;entryX=0.5;entryY=0;entryDx=0;entryDy=0;" edge="1" parent="1" source="-NXmrj87Xi26HZ0yywFv-39" target="-NXmrj87Xi26HZ0yywFv-41">
          <mxGeometry relative="1" as="geometry" />
        </mxCell>
        <mxCell id="-NXmrj87Xi26HZ0yywFv-55" style="edgeStyle=orthogonalEdgeStyle;rounded=0;orthogonalLoop=1;jettySize=auto;html=1;exitX=0;exitY=0.5;exitDx=0;exitDy=0;entryX=0.75;entryY=0;entryDx=0;entryDy=0;" edge="1" parent="1" source="-NXmrj87Xi26HZ0yywFv-39" target="-NXmrj87Xi26HZ0yywFv-35">
          <mxGeometry relative="1" as="geometry">
            <Array as="points">
              <mxPoint x="1181" y="410" />
              <mxPoint x="863" y="410" />
            </Array>
          </mxGeometry>
        </mxCell>
        <mxCell id="-NXmrj87Xi26HZ0yywFv-39" value="Coleta de Dados" style="rounded=1;whiteSpace=wrap;html=1;" vertex="1" parent="1">
          <mxGeometry x="1181" y="350" width="120" height="60" as="geometry" />
        </mxCell>
        <mxCell id="-NXmrj87Xi26HZ0yywFv-56" style="edgeStyle=orthogonalEdgeStyle;rounded=0;orthogonalLoop=1;jettySize=auto;html=1;exitX=0;exitY=0.5;exitDx=0;exitDy=0;entryX=1;entryY=0.5;entryDx=0;entryDy=0;" edge="1" parent="1" source="-NXmrj87Xi26HZ0yywFv-41" target="-NXmrj87Xi26HZ0yywFv-42">
          <mxGeometry relative="1" as="geometry" />
        </mxCell>
        <mxCell id="-NXmrj87Xi26HZ0yywFv-57" value="Representa Parte" style="edgeLabel;html=1;align=center;verticalAlign=middle;resizable=0;points=[];" connectable="0" vertex="1" parent="-NXmrj87Xi26HZ0yywFv-56">
          <mxGeometry x="0.2368" y="-2" relative="1" as="geometry">
            <mxPoint x="14" y="2" as="offset" />
          </mxGeometry>
        </mxCell>
        <mxCell id="-NXmrj87Xi26HZ0yywFv-61" style="edgeStyle=orthogonalEdgeStyle;rounded=0;orthogonalLoop=1;jettySize=auto;html=1;exitX=0.25;exitY=1;exitDx=0;exitDy=0;entryX=0.5;entryY=0;entryDx=0;entryDy=0;" edge="1" parent="1" source="-NXmrj87Xi26HZ0yywFv-41" target="-NXmrj87Xi26HZ0yywFv-60">
          <mxGeometry relative="1" as="geometry" />
        </mxCell>
        <mxCell id="-NXmrj87Xi26HZ0yywFv-62" style="edgeStyle=orthogonalEdgeStyle;rounded=0;orthogonalLoop=1;jettySize=auto;html=1;exitX=0.75;exitY=1;exitDx=0;exitDy=0;entryX=0.5;entryY=0;entryDx=0;entryDy=0;" edge="1" parent="1" source="-NXmrj87Xi26HZ0yywFv-41" target="-NXmrj87Xi26HZ0yywFv-59">
          <mxGeometry relative="1" as="geometry" />
        </mxCell>
        <mxCell id="-NXmrj87Xi26HZ0yywFv-41" value="Amostra" style="rounded=1;whiteSpace=wrap;html=1;" vertex="1" parent="1">
          <mxGeometry x="1301" y="460" width="120" height="60" as="geometry" />
        </mxCell>
        <mxCell id="-NXmrj87Xi26HZ0yywFv-42" value="População" style="rounded=1;whiteSpace=wrap;html=1;" vertex="1" parent="1">
          <mxGeometry x="1061" y="460" width="120" height="60" as="geometry" />
        </mxCell>
        <mxCell id="-NXmrj87Xi26HZ0yywFv-50" value="" style="edgeStyle=orthogonalEdgeStyle;rounded=0;orthogonalLoop=1;jettySize=auto;html=1;" edge="1" parent="1" source="-NXmrj87Xi26HZ0yywFv-45" target="-NXmrj87Xi26HZ0yywFv-42">
          <mxGeometry relative="1" as="geometry" />
        </mxCell>
        <mxCell id="-NXmrj87Xi26HZ0yywFv-45" value="Pesquisa por população leva em consideração todos os dados. Ex: todos os alunos da Fatec" style="shape=note;whiteSpace=wrap;html=1;backgroundOutline=1;darkOpacity=0.05;fillColor=#fff2cc;strokeColor=#d6b656;sketch=1;curveFitting=1;jiggle=2;shadow=0;size=34;" vertex="1" parent="1">
          <mxGeometry x="870" y="440" width="160" height="100" as="geometry" />
        </mxCell>
        <mxCell id="-NXmrj87Xi26HZ0yywFv-46" value="O tipo de coleta de dados é definido pelo referencial do pesquisador" style="shape=note;whiteSpace=wrap;html=1;backgroundOutline=1;darkOpacity=0.05;fillColor=#fff2cc;strokeColor=#d6b656;sketch=1;curveFitting=1;jiggle=2;shadow=0;size=34;" vertex="1" parent="1">
          <mxGeometry x="1370" y="200" width="160" height="100" as="geometry" />
        </mxCell>
        <mxCell id="-NXmrj87Xi26HZ0yywFv-54" value="" style="edgeStyle=orthogonalEdgeStyle;rounded=0;orthogonalLoop=1;jettySize=auto;html=1;" edge="1" parent="1" source="-NXmrj87Xi26HZ0yywFv-53" target="-NXmrj87Xi26HZ0yywFv-41">
          <mxGeometry relative="1" as="geometry" />
        </mxCell>
        <mxCell id="-NXmrj87Xi26HZ0yywFv-53" value="Pesquisa por Amostra analisa alguns dos dados disponíveis. Ex: Censo populacional" style="shape=note;whiteSpace=wrap;html=1;backgroundOutline=1;darkOpacity=0.05;fillColor=#fff2cc;strokeColor=#d6b656;sketch=1;curveFitting=1;jiggle=2;shadow=0;size=34;" vertex="1" parent="1">
          <mxGeometry x="1480" y="440" width="160" height="100" as="geometry" />
        </mxCell>
        <mxCell id="-NXmrj87Xi26HZ0yywFv-65" style="edgeStyle=orthogonalEdgeStyle;rounded=0;orthogonalLoop=1;jettySize=auto;html=1;exitX=0.25;exitY=1;exitDx=0;exitDy=0;entryX=0.5;entryY=0;entryDx=0;entryDy=0;" edge="1" parent="1" source="-NXmrj87Xi26HZ0yywFv-59" target="-NXmrj87Xi26HZ0yywFv-63">
          <mxGeometry relative="1" as="geometry" />
        </mxCell>
        <mxCell id="-NXmrj87Xi26HZ0yywFv-66" style="edgeStyle=orthogonalEdgeStyle;rounded=0;orthogonalLoop=1;jettySize=auto;html=1;exitX=0.75;exitY=1;exitDx=0;exitDy=0;entryX=0.5;entryY=0;entryDx=0;entryDy=0;" edge="1" parent="1" source="-NXmrj87Xi26HZ0yywFv-59" target="-NXmrj87Xi26HZ0yywFv-64">
          <mxGeometry relative="1" as="geometry" />
        </mxCell>
        <mxCell id="-NXmrj87Xi26HZ0yywFv-59" value="Seleção (possui técnicas de amostragem)" style="rounded=1;whiteSpace=wrap;html=1;" vertex="1" parent="1">
          <mxGeometry x="1410" y="600" width="120" height="60" as="geometry" />
        </mxCell>
        <mxCell id="-NXmrj87Xi26HZ0yywFv-60" value="Qtde (utilizado para cálculos)" style="rounded=1;whiteSpace=wrap;html=1;" vertex="1" parent="1">
          <mxGeometry x="1190" y="600" width="120" height="60" as="geometry" />
        </mxCell>
        <mxCell id="-NXmrj87Xi26HZ0yywFv-63" value="Probabilística" style="rounded=1;whiteSpace=wrap;html=1;" vertex="1" parent="1">
          <mxGeometry x="1320" y="700" width="120" height="60" as="geometry" />
        </mxCell>
        <mxCell id="-NXmrj87Xi26HZ0yywFv-64" value="Não Probabilística" style="rounded=1;whiteSpace=wrap;html=1;" vertex="1" parent="1">
          <mxGeometry x="1520" y="700" width="120" height="60" as="geometry" />
        </mxCell>
      </root>
    </mxGraphModel>
  </diagram>
</mxfile>
